<?xml version="1.0" encoding="utf-8"?>
<!-- Generator: Adobe Illustrator 26.0.1, SVG Export Plug-In . SVG Version: 6.00 Build 0)  -->
<svg width="64" height="64" version="1.1" id="Layer_1" xmlns="http://www.w3.org/2000/svg" xmlns:xlink="http://www.w3.org/1999/xlink" x="0px" y="0px"
	 viewBox="0 0 63 64" style="enable-background:new 0 0 63 64;" xml:space="preserve">
<style type="text/css">
	.st0{opacity:0.2;fill:#EA5549;enable-background:new    ;}
	.st1{fill:#333333;}
</style>
<circle class="st0" cx="31.5" cy="32" r="19.2"/>
<g>
	<rect x="34.5" y="8.1" class="st1" width="2" height="2"/>
	<rect x="13.5" y="52.7" transform="matrix(0.7071 -0.7071 0.7071 0.7071 -34.0254 26.0776)" class="st1" width="2" height="2.8"/>
	<path class="st1" d="M53.2,41.4l-3-3c-0.2-0.2-0.5-0.3-0.7-0.3c-0.3,0-0.5,0.1-0.7,0.3l-0.3,0.3l-1-1v-2.6c0-0.3-0.1-0.5-0.3-0.7
		l-5.7-5.7v-6.6c0-0.3-0.1-0.5-0.3-0.7l-1.7-1.7v-1.6c0.6,0,1-0.4,1-1v-4v-13h-2v12h-14v-12h-2v13v4c0,0.6,0.4,1,1,1v1.6l-3.7,3.7
		c-0.2,0.2-0.3,0.4-0.3,0.7v2.6l-4.7,4.7c-0.2,0.2-0.3,0.4-0.3,0.7v5.6l-1,1l-0.3-0.3c-0.4-0.4-1-0.4-1.4,0l-3,3l-9,9l1.4,1.4
		l8.3-8.3l10.6,10.6l-8.3,8.3l1.4,1.4l9-9l3-3c0.4-0.4,0.4-1,0-1.4l-0.3-0.3L26,49c0.2,0,0.3,0.1,0.5,0.1c0.4,0,0.8-0.1,1.1-0.2
		c0.3,1.3,1.5,2.2,2.9,2.2c1.1,0,2-0.6,2.5-1.4c0.4,0.2,0.9,0.4,1.5,0.4h1.6l1,1l-0.3,0.3c-0.4,0.4-0.4,1,0,1.4l3,3l8,8l1.4-1.4
		l-7.3-7.3l3.5-3.8l7.1-7.7l9.3,9.3l1.4-1.4L53.2,41.4z M38.5,14.1v2h-14v-2H38.5z M21.5,52.7L10.9,42.1l1.6-1.6l0.3,0.3l10,10
		l0.3,0.3L21.5,52.7z M14.9,40.1l1.3-1.3c0.2-0.2,0.3-0.4,0.3-0.7v-5.6l3-3v1.6c0,0.3,0.1,0.5,0.3,0.7l3.7,3.7v10.6
		c0,0.7,0.3,1.4,0.7,1.9l-0.7,0.7L14.9,40.1z M33.5,47.1v-15h-2v15v1c0,0.6-0.4,1-1,1s-1-0.4-1-1v-2v-14h-2v14c0,0.6-0.4,1-1,1
		s-1-0.4-1-1v-16h-2v2.6l-2-2v-2.6v-2v-1.6l3.7-3.7c0.2-0.2,0.3-0.4,0.3-0.7v-2h12v2c0,0.3,0.1,0.5,0.3,0.7l1.7,1.7v19.6
		c0,0.6-0.4,1-1,1s-1-0.4-1-1v-10h-2v10v5c0,0.6-0.4,1-1,1S33.5,47.7,33.5,47.1z M37.2,48.4L37.2,48.4c0.2-0.4,0.3-0.8,0.3-1.3V45
		c0.3,0.1,0.6,0.2,1,0.2c1.7,0,3-1.3,3-3V31.6l4,4v2.6c0,0.3,0.1,0.5,0.3,0.7l1.3,1.3L42.7,45l-4.3,4.7L37.2,48.4z M39,52
		c0.1-0.1,0.2-0.1,0.2-0.2l5-5.5l5.3-5.7l1.6,1.6L47.6,46l-7.1,7.7l-1.6-1.6L39,52z"/>
	<rect x="51.1" y="48.1" transform="matrix(0.7071 -0.7071 0.7071 0.7071 -19.3602 51.4832)" class="st1" width="2.8" height="2"/>
	<path class="st1" d="M31.5,59.1c-3.3,0-6.6-0.6-9.6-1.9L21.1,59c3.3,1.4,6.8,2.1,10.4,2.1c2.8,0,5.6-0.4,8.3-1.3l-0.6-1.9
		C36.7,58.7,34.1,59.1,31.5,59.1z"/>
	<path class="st1" d="M56.5,34.1c0,2.3-0.3,4.7-1,6.9l1.9,0.6c0.7-2.4,1-4.9,1-7.4c0-10.4-6.1-20-15.6-24.5L42,11.5
		C50.8,15.6,56.5,24.5,56.5,34.1z"/>
	<path class="st1" d="M7.4,40.9c-0.6-2.2-0.9-4.4-0.9-6.7c0-9.7,5.7-18.6,14.4-22.7l-0.8-1.8c-9.5,4.4-15.6,14-15.6,24.5
		c0,2.5,0.3,4.9,1,7.3L7.4,40.9z"/>
</g>
</svg>
